<svg xmlns="http://www.w3.org/2000/svg" width="1400" height="900" viewBox="0 0 1400 900">
  <rect width="1400" height="900" fill="#F6F4EE" />
  <text x="72" y="92" font-family="Arial, sans-serif" font-size="54" font-weight="700" fill="#1F1F1F">Governance Structure</text>
  <text x="72" y="138" font-family="Arial, sans-serif" font-size="28" fill="#1F1F1F">(As Understood By No One)</text>

  <rect x="470" y="110" width="220" height="72" fill="#FFFFFF" stroke="#1F1F1F" stroke-width="4" rx="8"/>
  <text x="510" y="156" font-family="Arial, sans-serif" font-size="30" font-weight="700" fill="#1F1F1F">User Intent</text>

  <rect x="120" y="250" width="190" height="86" fill="#FFFFFF" stroke="#1F1F1F" stroke-width="4" rx="8"/>
  <text x="163" y="304" font-family="Arial, sans-serif" font-size="28" font-weight="700" fill="#1F1F1F">Chat Surface</text>

  <rect x="370" y="250" width="190" height="86" fill="#FFFFFF" stroke="#1F1F1F" stroke-width="4" rx="8"/>
  <text x="444" y="304" font-family="Arial, sans-serif" font-size="28" font-weight="700" fill="#1F1F1F">LLM</text>

  <rect x="630" y="250" width="250" height="86" fill="#FFFFFF" stroke="#1F1F1F" stroke-width="4" rx="8"/>
  <text x="665" y="290" font-family="Arial, sans-serif" font-size="26" font-weight="700" fill="#1F1F1F">Former Query Builder,</text>
  <text x="705" y="320" font-family="Arial, sans-serif" font-size="26" font-weight="700" fill="#1F1F1F">Still Influential</text>

  <rect x="980" y="250" width="250" height="86" fill="#FFFFFF" stroke="#1F1F1F" stroke-width="4" rx="8"/>
  <text x="1020" y="290" font-family="Arial, sans-serif" font-size="26" font-weight="700" fill="#1F1F1F">Ontology Approval</text>
  <text x="1080" y="320" font-family="Arial, sans-serif" font-size="26" font-weight="700" fill="#1F1F1F">Council</text>

  <rect x="150" y="430" width="220" height="88" fill="#FFFFFF" stroke="#1F1F1F" stroke-width="4" rx="8"/>
  <text x="173" y="474" font-family="Arial, sans-serif" font-size="26" font-weight="700" fill="#1F1F1F">Send Button</text>
  <text x="172" y="506" font-family="Arial, sans-serif" font-size="26" font-weight="700" fill="#1F1F1F">Confidence Layer</text>

  <rect x="430" y="430" width="240" height="88" fill="#FFFFFF" stroke="#1F1F1F" stroke-width="4" rx="8"/>
  <text x="468" y="474" font-family="Arial, sans-serif" font-size="26" font-weight="700" fill="#1F1F1F">Invisible Rewrite</text>
  <text x="503" y="506" font-family="Arial, sans-serif" font-size="26" font-weight="700" fill="#1F1F1F">Committee</text>

  <rect x="760" y="430" width="210" height="88" fill="#FFFFFF" stroke="#1F1F1F" stroke-width="4" rx="8"/>
  <text x="804" y="474" font-family="Arial, sans-serif" font-size="26" font-weight="700" fill="#1F1F1F">Builder Logic</text>
  <text x="822" y="506" font-family="Arial, sans-serif" font-size="26" font-weight="700" fill="#1F1F1F">(Retired)</text>

  <rect x="1040" y="430" width="240" height="88" fill="#FFFFFF" stroke="#1F1F1F" stroke-width="4" rx="8"/>
  <text x="1080" y="474" font-family="Arial, sans-serif" font-size="26" font-weight="700" fill="#1F1F1F">Graph Behavior</text>
  <text x="1126" y="506" font-family="Arial, sans-serif" font-size="26" font-weight="700" fill="#1F1F1F">With Feelings</text>

  <line x1="580" y1="182" x2="220" y2="250" stroke="#1F1F1F" stroke-width="4"/>
  <line x1="580" y1="182" x2="465" y2="250" stroke="#1F1F1F" stroke-width="4"/>
  <line x1="580" y1="182" x2="755" y2="250" stroke="#1F1F1F" stroke-width="4"/>
  <line x1="580" y1="182" x2="1105" y2="250" stroke="#1F1F1F" stroke-width="4"/>

  <line x1="220" y1="336" x2="260" y2="430" stroke="#6D88A8" stroke-width="4"/>
  <line x1="465" y1="336" x2="550" y2="430" stroke="#6D88A8" stroke-width="4"/>
  <line x1="755" y1="336" x2="865" y2="430" stroke="#6D88A8" stroke-width="4"/>
  <line x1="1105" y1="336" x2="1160" y2="430" stroke="#6D88A8" stroke-width="4"/>

  <path d="M120 610 C340 740, 980 760, 1240 620" fill="none" stroke="#1F1F1F" stroke-width="5"/>
  <text x="420" y="774" font-family="Arial, sans-serif" font-size="20" fill="#1F1F1F">still in use for historical reasons</text>

  <rect x="40" y="320" width="120" height="80" fill="#F3D85B" stroke="#1F1F1F" stroke-width="2" transform="rotate(-3 40 320)"/>
  <text x="58" y="357" font-family="Arial, sans-serif" font-size="22" font-weight="700" fill="#1F1F1F">who owns</text>
  <text x="78" y="384" font-family="Arial, sans-serif" font-size="22" font-weight="700" fill="#1F1F1F">this?</text>

  <rect x="1210" y="350" width="120" height="80" fill="#F3D85B" stroke="#1F1F1F" stroke-width="2" transform="rotate(2 1210 350)"/>
  <text x="1230" y="387" font-family="Arial, sans-serif" font-size="22" font-weight="700" fill="#1F1F1F">Source</text>
  <text x="1246" y="414" font-family="Arial, sans-serif" font-size="22" font-weight="700" fill="#1F1F1F">of Truth</text>

  <rect x="1000" y="610" width="190" height="96" fill="#FFFFFF" stroke="#1F1F1F" stroke-width="3" stroke-dasharray="10 8"/>
  <text x="1034" y="662" font-family="Arial, sans-serif" font-size="28" font-weight="700" fill="#1F1F1F">Do Not Remove</text>

  <line x1="578" y1="366" x2="720" y2="408" stroke="#B03A2E" stroke-width="4"/>
  <text x="608" y="394" font-family="Arial, sans-serif" font-size="24" fill="#B03A2E">Temporary Bridge Layer</text>

  <text x="72" y="852" font-family="Arial, sans-serif" font-size="24" fill="#1F1F1F">All temporary structures are now considered foundational.</text>
</svg>
